<?xml version="1.0" encoding="UTF-8"?>
<!DOCTYPE svg PUBLIC "-//W3C//DTD SVG 1.1//EN" "http://www.w3.org/Graphics/SVG/1.1/DTD/svg11.dtd">
<!-- Creator: CorelDRAW 2020 (64-Bit) -->
<svg xmlns="http://www.w3.org/2000/svg" xml:space="preserve" width="3.20366in" height="0.522945in" version="1.1" style="shape-rendering:geometricPrecision; text-rendering:geometricPrecision; image-rendering:optimizeQuality; fill-rule:evenodd; clip-rule:evenodd"
viewBox="0 0 996.68 162.69"
 xmlns:xlink="http://www.w3.org/1999/xlink"
 xmlns:xodm="http://www.corel.com/coreldraw/odm/2003">
 <defs>
  <style type="text/css">
   <![CDATA[
    .fil0 {fill:#F2EA99}
   ]]>
  </style>
 </defs>
 <g id="Layer_x0020_1">
  <metadata id="CorelCorpID_0Corel-Layer"/>
  <g id="_1837432759904">
   <path class="fil0" d="M2.53 61.75l0.04 39.87 82.2 -0.65 -41.86 58.59c3.61,2.58 23.72,1.74 30.12,1.78 13.32,0.09 13.5,-1.16 20.53,-11.49 3.54,-5.2 24.45,-34.94 27.42,-36.66 8.9,2.74 29.23,41.28 37.24,45.68 3.73,2.05 35.65,2.66 39.91,1.54 8.58,-2.25 -6.39,-17.97 -9.77,-22.86 -10.07,-14.57 -23.04,-35.3 -35.32,-47.51 -14.89,-14.81 11.64,-35.92 20.36,-49.27 20.89,-31.96 39.29,-41.75 14.35,-40.67 -44.71,1.93 -25.16,-3.26 -51.03,30.13 -24.57,31.71 -8.24,31.11 -51.35,31.58 -27.52,0.3 -55.36,-1.04 -82.84,-0.07z"/>
   <path class="fil0" d="M939.36 72.69c-3.07,-0.5 -28.97,-43.69 -36.08,-52.8 -3.6,-4.62 -22.4,-3.56 -24.2,-1.78 -4.21,4.18 46.05,60.19 45.88,70.9 -0.13,8.11 -49.05,67.22 -45.61,70.7 3.6,3.65 18.59,1.86 23.18,-3.86 7.24,-9.02 33.68,-52.66 36.41,-51.63 0.52,0.33 18.24,31.17 21.67,35.76 10.4,13.91 14.77,26.68 35.99,20.55 2.28,-7.94 -44.19,-63.52 -45.34,-71.75 -1.03,-7.39 46.88,-63.67 45.35,-71.64l-21.69 -0.22 -35.55 55.78z"/>
   <path class="fil0" d="M277.3 35.61c5.78,-2.98 59.71,1.54 64.37,-0.95 2.56,-1.36 2.02,-15.41 -0.44,-17.23 -0.68,-0.51 -80.08,-1.58 -85.33,-0.34l0 143.13c1.63,0.89 17.47,-0.56 20.52,-0.73l0.13 -60 54.28 -0.21c1.94,-2.99 1.1,-13.07 1.19,-17.07l-55.25 -0.28c-1.28,-2.16 -0.47,-40.62 0.52,-46.32z"/>
   <path class="fil0" d="M826.77 76.23c11.13,-2.44 23.84,1.6 30.2,11.14 12.41,18.6 -1.27,16.04 -15.44,15.88 -6.82,-0.08 -36.86,3.89 -35.06,-5.58 1.82,-9.58 10.46,-19.28 20.3,-21.44zm-20.18 39.98c3.65,-2.43 59.06,1.41 68.39,-0.31 15.06,-2.77 -0.61,-39.43 -13.9,-47.94 -40.81,-26.12 -78.87,9.24 -72.45,56.45 5.54,40.75 61.73,52.14 85.57,18.58 10.68,-15.03 -0.47,-17.77 -9.79,-12.12 -7.11,4.32 -4.65,13.11 -20.37,15.86 -21.77,3.81 -46.44,-17.73 -37.46,-30.52z"/>
   <path class="fil0" d="M387.01 76.98c37.65,-10.23 55.77,59.79 11.72,68.42 -40.07,7.85 -54.35,-56.85 -11.72,-68.42zm-44.72 40.37c4.11,66.04 109.95,55.89 101.04,-11.45 -8.82,-66.72 -105.33,-57.4 -101.04,11.45z"/>
   <path class="fil0" d="M1.66 39.4c3.83,2.02 70.7,0.67 80.79,0.68 20.47,0.02 16.05,1.26 27.34,-14.22 2.68,-3.67 18.36,-21.62 16.94,-24.09 -1.23,-2.14 -118.02,-2.17 -122.74,-0.99 -4.71,1.18 -4.97,32.91 -2.35,38.62z"/>
   <path class="fil0" d="M703.72 64.02l-16.98 0.26 0.05 95.57c2.45,2.19 14.02,0.96 17.79,0.97l0 -0.83c9.25,-11.37 -15.48,-79.88 26.72,-82.96 41.13,-3 20.41,62.84 26.41,82.78 1.57,1.19 17.83,5.37 17.87,-5.99 0.03,-9.2 -0.13,-18.51 -0.11,-27.74 0.02,-16.44 2,-34.55 -5.86,-49.42 -10.81,-20.44 -43.84,-20.97 -56.26,-6.82 -12.41,14.12 -6.21,-0.58 -9.62,-5.81z"/>
   <path class="fil0" d="M648.12 148.76l2.37 11.53c2.1,1.17 12.84,0.27 15.92,0.2l0.42 -97.59 -17.03 -0.08c-5.61,25.12 10.99,77.62 -22.37,83.22 -40.79,6.85 -25.65,-52.51 -27.64,-76.81 -0.66,-8.1 -9.64,-7.51 -16.23,-6.41 -5.77,0.96 -3.47,16.97 -3.5,21.82 -0.06,12.38 -1.42,40.79 1.57,51.31 3.53,12.42 12.78,24.89 26.71,25.58 26.59,1.33 35.05,-12.77 39.77,-12.78z"/>
   <path class="fil0" d="M554.82 78.23c3.35,-0.05 15.77,0.86 17.76,-1.02l-0.39 -13.79c-1.82,-1.32 -13.98,0.12 -16.99,0.28 -1.59,-1.88 -0.9,-26.26 -1.56,-30.53 -1.37,-0.55 -15.2,-0.68 -16.43,-0.35 -3.84,1.02 -3.14,10.1 -3.03,13.99 0.94,33.57 -6.13,6.87 -16.96,17.32l-1.18 14.41c2,1.26 14.99,0.62 18.23,0.63l1.66 81.63c2.67,-0.01 17.54,0.91 18.39,-1.13l0.49 -81.44z"/>
   <path class="fil0" d="M510.98 62.75c-9.93,-4.38 -24.1,-0.97 -30.64,8.13 -8.89,12.38 -6.38,-3.78 -6.68,-4.86 -1.12,-3.95 -13.49,-3.47 -17.32,-1.53 -0,10.06 -0.8,93.94 0.45,96.31l17.47 -0.86c4.55,-9.91 -0.69,-43.13 1.01,-56.5 3.96,-31.28 31.1,-20.2 36.47,-24.38l-0.76 -16.32z"/>
   <path class="fil0" d="M1.07 160.57l39.16 -0.08c1.5,-2.09 0.01,-23.75 0.17,-29.02 0.48,-15.85 -4.89,-9.96 -21.12,-10.52 -14.02,-0.49 -19.59,-4.71 -18.96,10.53 0.2,4.92 -0.24,26.84 0.74,29.09z"/>
  </g>
 </g>
</svg>
